HIERARCHY
ROOT humanoid_root
{
	OFFSET 0.000000 0.000000 0.000000
	CHANNELS 6 Xposition Yposition Zposition Zrotation Yrotation Xrotation
	JOINT lhipjoint
	{
		OFFSET 0.000000 0.000000 0.000000
		CHANNELS 6 Xposition Yposition Zposition Zrotation Yrotation Xrotation
		JOINT lfemur
		{
			OFFSET 1.887723 -0.856360 -1.627692
			CHANNELS 3 Zrotation Yrotation Xrotation
			JOINT ltibia
			{
				OFFSET 2.398363 -0.000000 -6.589455
				CHANNELS 6 Xposition Yposition Zposition Zrotation Yrotation Xrotation
				JOINT lfoot
				{
					OFFSET 2.785233 -0.000001 -7.652369
					CHANNELS 6 Xposition Yposition Zposition Zrotation Yrotation Xrotation
					JOINT ltoes
					{
						OFFSET 0.195506 -1.906938 -0.537149
						CHANNELS 6 Xposition Yposition Zposition Zrotation Yrotation Xrotation
						End Site
						{
							OFFSET 0.000000 -0.997350 0.000000
						}
					}
				}
			}
		}
	}
	JOINT rhipjoint
	{
		OFFSET 0.000000 0.000000 0.000000
		CHANNELS 6 Xposition Yposition Zposition Zrotation Yrotation Xrotation
		JOINT rfemur
		{
			OFFSET -1.742818 -0.856361 -1.627690
			CHANNELS 3 Zrotation Yrotation Xrotation
			JOINT rtibia
			{
				OFFSET -2.360618 -0.000000 -6.485751
				CHANNELS 6 Xposition Yposition Zposition Zrotation Yrotation Xrotation
				JOINT rfoot
				{
					OFFSET -2.762580 -0.000001 -7.590133
					CHANNELS 6 Xposition Yposition Zposition Zrotation Yrotation Xrotation
					JOINT rtoes
					{
						OFFSET -0.193080 -2.039523 -0.530481
						CHANNELS 6 Xposition Yposition Zposition Zrotation Yrotation Xrotation
						End Site
						{
							OFFSET 0.000000 -1.060310 0.000000
						}
					}
				}
			}
		}
	}
	JOINT lowerback
	{
		OFFSET 0.000000 0.000000 0.000000
		CHANNELS 6 Xposition Yposition Zposition Zrotation Yrotation Xrotation
		JOINT upperback
		{
			OFFSET -0.082989 0.307214 2.031598
			CHANNELS 3 Zrotation Yrotation Xrotation
			JOINT thorax
			{
				OFFSET -0.010299 -0.138909 2.006030
				CHANNELS 6 Xposition Yposition Zposition Zrotation Yrotation Xrotation
				JOINT lowerneck
				{
					OFFSET 0.028457 -0.302327 2.068176
					CHANNELS 3 Zrotation Yrotation Xrotation
					JOINT upperneck
					{
						OFFSET 0.042823 -0.199911 1.695780
						CHANNELS 6 Xposition Yposition Zposition Zrotation Yrotation Xrotation
						JOINT head
						{
							OFFSET -0.086650 0.037848 1.666219
							CHANNELS 6 Xposition Yposition Zposition Zrotation Yrotation Xrotation
							End Site
							{
								OFFSET -0.036993 0.040936 1.833290
							}
						}
					}
				}
				JOINT lclavicle
				{
					OFFSET 0.028457 -0.302327 2.068176
					CHANNELS 3 Zrotation Yrotation Xrotation
					JOINT lhumerus
					{
						OFFSET 3.042191 0.053467 1.508028
						CHANNELS 6 Xposition Yposition Zposition Zrotation Yrotation Xrotation
						JOINT lradius
						{
							OFFSET 5.791990 0.000000 0.000000
							CHANNELS 6 Xposition Yposition Zposition Zrotation Yrotation Xrotation
							JOINT lwrist
							{
								OFFSET 3.499080 0.000000 0.000000
								CHANNELS 6 Xposition Yposition Zposition Zrotation Yrotation Xrotation
								JOINT lhand
								{
									OFFSET 1.749540 0.000000 0.000000
									CHANNELS 3 Zrotation Yrotation Xrotation
									JOINT lfingers
									{
										OFFSET 0.593861 0.000000 0.000000
										CHANNELS 6 Xposition Yposition Zposition Zrotation Yrotation Xrotation
										End Site
										{
											OFFSET 0.478786 0.000000 0.000000
										}
									}
								}
								JOINT lthumb
								{
									OFFSET 1.749540 0.000000 0.000000
									CHANNELS 3 Zrotation Yrotation Xrotation
									End Site
									{
										OFFSET 0.486096 -0.486096 0.000000
									}
								}
							}
						}
					}
				}
				JOINT rclavicle
				{
					OFFSET 0.028457 -0.302327 2.068176
					CHANNELS 3 Zrotation Yrotation Xrotation
					JOINT rhumerus
					{
						OFFSET -3.303163 -0.111754 1.188528
						CHANNELS 6 Xposition Yposition Zposition Zrotation Yrotation Xrotation
						JOINT rradius
						{
							OFFSET -5.737989 0.000000 0.000000
							CHANNELS 6 Xposition Yposition Zposition Zrotation Yrotation Xrotation
							JOINT rwrist
							{
								OFFSET -3.579160 0.000000 0.000000
								CHANNELS 6 Xposition Yposition Zposition Zrotation Yrotation Xrotation
								JOINT rhand
								{
									OFFSET -1.789580 0.000000 0.000000
									CHANNELS 3 Zrotation Yrotation Xrotation
									JOINT rfingers
									{
										OFFSET -0.615577 0.000000 0.000000
										CHANNELS 6 Xposition Yposition Zposition Zrotation Yrotation Xrotation
										End Site
										{
											OFFSET -0.496294 0.000000 0.000000
										}
									}
								}
								JOINT rthumb
								{
									OFFSET -1.789580 0.000000 0.000000
									CHANNELS 3 Zrotation Yrotation Xrotation
									End Site
									{
										OFFSET -0.503872 -0.503872 0.000000
									}
								}
							}
						}
					}
				}
			}
		}
	}
}
MOTION
Frames: 4
Frame Time: 0.041667
-0.632877 15.367501 15.305198 -218.706892 -8.311101 8.207287 0.000001 0.000001 0.000001 0.000002 0.000002 0.000003 -7.220735 18.002123 -36.697397 2.398365 -0.000002 -6.589455 17.300951 -9.016722 54.793007 2.785232 -0.000000 -7.652373 -9.580186 -1.816421 -24.045411 0.195506 -1.906938 -0.537150 -8.169669 -1.920188 -23.260059 0.000001 0.000001 0.000001 -0.000002 -0.000003 0.000000 1.908891 -20.888419 -42.190509 -2.360618 -0.000003 -6.485751 -21.254376 23.198367 95.135533 -2.762582 -0.000002 -7.590131 -5.396488 0.116995 -10.600724 -0.193079 -2.039523 -0.530484 -3.089107 0.261831 8.527425 0.000001 0.000001 0.000001 0.291779 10.360669 8.305945 -0.751937 1.653987 -2.126464 -0.010300 -0.138908 2.006031 0.064222 -4.165066 -6.799192 -2.016053 -4.985575 -3.882250 0.042823 -0.199911 1.695783 -2.696338 -1.081672 -3.610691 -0.086649 0.037848 1.666214 -1.351405 0.504256 -0.518514 0.000002 -4.988649 -0.000001 3.042189 0.053468 1.508028 7.660715 57.021148 37.740019 5.791993 0.000001 -0.000000 -47.202952 -28.397025 6.233942 3.499082 -0.000001 -0.000001 0.000000 0.000001 -0.512994 -21.569116 -17.391566 -0.460260 0.593862 0.000001 0.000001 -0.000003 6.280954 -0.000001 6.483179 5.225785 5.207058 -0.000001 -4.988647 0.000001 -3.303163 -0.111753 1.188530 -71.383885 -61.788692 122.196305 -5.737989 -0.000002 0.000001 31.211656 17.843707 3.172913 -3.579157 0.000000 0.000001 0.000002 -0.000000 -13.442754 -45.130963 28.255974 1.730140 -0.615575 -0.000001 0.000002 0.000000 -0.087643 0.000001 -67.418017 2.467754 -0.802560 
-0.565230 15.482501 15.305498 -219.684538 -8.714864 8.275745 0.000001 0.000000 -0.000001 0.000002 -0.000003 0.000001 -6.444835 18.748196 -35.734358 2.398363 -0.000001 -6.589455 17.248495 -8.943616 54.554999 2.785232 -0.000000 -7.652372 -9.407091 -1.898618 -24.576556 0.195506 -1.906938 -0.537152 -7.923777 -1.800033 -22.508142 0.000001 0.000000 -0.000001 0.000000 -0.000000 -0.000003 3.534632 -20.016055 -44.738234 -2.360616 -0.000000 -6.485750 -21.245467 23.287253 95.384309 -2.762579 -0.000001 -7.590131 -4.555220 0.163355 -10.695689 -0.193081 -2.039523 -0.530486 -3.716907 0.380326 10.282530 0.000001 0.000000 -0.000001 0.214836 10.742424 8.569154 -0.941806 1.676024 -2.301408 -0.010298 -0.138909 2.006029 0.010611 -4.382319 -7.108297 -2.189507 -4.869988 -3.689570 0.042823 -0.199911 1.695779 -2.911106 -1.204274 -3.681294 -0.086651 0.037847 1.666219 -1.461322 0.445741 -0.572779 0.000001 -4.873529 -0.000001 3.042193 0.053466 1.508026 5.820576 57.451358 36.615179 5.791986 0.000001 0.000001 -48.780210 -29.608180 6.595909 3.499079 0.000000 -0.000003 0.000000 -0.000004 -0.520517 -21.418985 -17.241411 -0.452655 0.593864 0.000000 0.000001 0.000001 6.280953 0.000001 6.642200 5.326010 5.306685 0.000002 -4.873527 -0.000001 -3.303164 -0.111754 1.188529 -70.523404 -61.189377 122.565095 -5.737991 -0.000000 0.000000 30.675793 17.530746 3.078686 -3.579160 0.000001 0.000001 0.000001 -0.000000 -11.558371 -42.378957 26.180540 1.500027 -0.615576 0.000000 0.000001 -0.000001 -0.087648 0.000001 -65.780111 0.362623 -0.157239 
-0.485348 15.602401 15.320098 -220.814156 -8.646648 8.217523 0.000001 -0.000000 0.000002 0.000003 0.000002 0.000000 -5.096576 19.048308 -34.352689 2.398363 0.000001 -6.589454 17.147077 -8.804024 54.098541 2.785234 0.000000 -7.652369 -9.123292 -1.965696 -25.003547 0.195506 -1.906939 -0.537150 -8.062226 -1.867127 -22.930825 0.000001 -0.000000 0.000002 0.000000 0.000001 -0.000002 5.185810 -19.762543 -46.977843 -2.360617 -0.000001 -6.485751 -21.246062 23.281461 95.368108 -2.762578 0.000000 -7.590130 -4.854813 0.153817 -10.792396 -0.193081 -2.039522 -0.530483 -3.398717 0.317436 9.391556 0.000001 -0.000000 0.000002 0.177247 10.643752 8.764459 -1.017771 1.576541 -2.441214 -0.010301 -0.138908 2.006031 -0.013341 -4.447219 -7.362554 -2.343742 -4.773223 -3.619382 0.042821 -0.199911 1.695780 -3.130777 -1.127255 -3.432256 -0.086652 0.037847 1.666220 -1.570744 0.455318 -0.511206 -0.000003 -4.777200 -0.000000 3.042192 0.053467 1.508028 4.415814 57.896857 35.979893 5.791989 -0.000001 -0.000001 -50.410737 -30.880006 7.002244 3.499081 0.000000 -0.000003 -0.000000 -0.000002 -0.528046 -21.596952 -16.701061 -0.441650 0.593861 -0.000001 -0.000001 -0.000005 6.280951 0.000003 6.486456 5.690946 5.675529 -0.000005 -4.777200 -0.000001 -3.303164 -0.111755 1.188527 -69.708979 -60.414902 122.804561 -5.737989 -0.000001 0.000001 30.406383 17.373891 3.031569 -3.579158 0.000000 0.000000 0.000001 -0.000000 -9.635803 -39.682313 24.445314 1.300454 -0.615578 0.000001 0.000000 0.000002 -0.087642 0.000002 -64.006673 -1.059396 0.556945 
-0.399011 15.731101 15.359899 -221.958007 -8.555606 8.208337 -0.000001 -0.000001 0.000000 -0.000002 0.000002 0.000003 -3.615192 19.357205 -32.856280 2.398365 -0.000003 -6.589454 16.986879 -8.588107 53.387077 2.785231 -0.000000 -7.652369 -8.766667 -2.019869 -25.348763 0.195505 -1.906936 -0.537150 -8.318510 -1.995147 -23.717919 -0.000001 -0.000001 0.000000 -0.000004 -0.000002 0.000001 6.703289 -19.514311 -49.095028 -2.360617 -0.000003 -6.485753 -21.255704 23.184739 95.097434 -2.762579 -0.000001 -7.590131 -5.867147 0.099838 -10.763693 -0.193079 -2.039523 -0.530486 -2.132110 0.124249 5.871047 -0.000001 -0.000001 0.000000 0.091990 10.423684 8.673516 -1.100406 1.499924 -2.512148 -0.010298 -0.138909 2.006029 -0.061110 -4.417956 -7.378910 -2.462764 -4.706797 -3.653997 0.042822 -0.199911 1.695779 -3.302723 -1.175744 -3.176765 -0.086649 0.037847 1.666216 -1.654149 0.432510 -0.429166 -0.000001 -4.711132 0.000000 3.042187 0.053467 1.508026 3.078646 58.366849 35.244647 5.791992 0.000000 0.000002 -52.127731 -32.227588 7.474477 3.499084 0.000000 -0.000000 0.000000 -0.000000 -0.535696 -21.708916 -15.751977 -0.417725 0.593862 -0.000001 -0.000002 -0.000002 6.280952 0.000001 6.418423 6.330050 6.321976 0.000000 -4.711127 0.000001 -3.303163 -0.111753 1.188529 -68.685537 -59.802869 122.859694 -5.737988 -0.000002 0.000000 30.276316 17.298270 3.008895 -3.579156 -0.000001 0.000001 0.000001 -0.000000 -8.502729 -37.314454 23.161530 1.147050 -0.615578 -0.000002 0.000001 -0.000003 -0.087647 0.000002 -62.298791 -1.975334 1.172253 
